<?xml version="1.0" encoding="UTF-8" standalone="no"?>
<svg
   xmlns:dc="http://purl.org/dc/elements/1.1/"
   xmlns:cc="http://creativecommons.org/ns#"
   xmlns:rdf="http://www.w3.org/1999/02/22-rdf-syntax-ns#"
   xmlns:svg="http://www.w3.org/2000/svg"
   xmlns="http://www.w3.org/2000/svg"
   xmlns:sodipodi="http://sodipodi.sourceforge.net/DTD/sodipodi-0.dtd"
   xmlns:inkscape="http://www.inkscape.org/namespaces/inkscape"
   width="128"
   height="128"
   version="1.1"
   id="svg41"
   sodipodi:docname="emoji_u1f92b.svg"
   inkscape:version="0.92.4 (5da689c313, 2019-01-14)">
  <metadata
     id="metadata45">
    <rdf:RDF>
      <cc:Work
         rdf:about="">
        <dc:format>image/svg+xml</dc:format>
        <dc:type
           rdf:resource="http://purl.org/dc/dcmitype/StillImage" />
      </cc:Work>
    </rdf:RDF>
  </metadata>
  <sodipodi:namedview
     pagecolor="#ffffff"
     bordercolor="#666666"
     borderopacity="1"
     objecttolerance="10"
     gridtolerance="10"
     guidetolerance="10"
     inkscape:pageopacity="0"
     inkscape:pageshadow="2"
     inkscape:window-width="1866"
     inkscape:window-height="1016"
     id="namedview43"
     showgrid="false"
     inkscape:zoom="3.6875"
     inkscape:cx="52.556988"
     inkscape:cy="42.945689"
     inkscape:window-x="1134"
     inkscape:window-y="644"
     inkscape:window-maximized="1"
     inkscape:current-layer="svg41" />
  <defs
     id="defs15">
    <path
       id="a"
       d="M54.92 102.44C45.3 92.51 44.21 91.5 41.51 83.86c-2.59-7.34-11.13-21.45-13.53-25.63-2.02-3.52-2.62-6.34-1.12-9.6.98-2.14 3.36-4.84 7.08-4.91 2.43-.05 5.84.42 10.62 7.11.53.74 1.69.47 1.83-.42.05-.33.1-.72.13-1.2.25-3.51 0-30.58.75-37.35.75-6.77 1.94-7.86 4.36-9.25 1.76-1.01 6.22-.92 8.48 1.34 2.38 2.38 2.47 10.43 2.95 40.23 0 4.26.98 5.22 3.05 3.84 1.47-.98 5.12-1.28 7.23-.08 1.87 1.07 3.09 2.14 4.86 1.72 2.44-.59 6.78-.95 9.25 1.32 1.45 1.33 3.19 1.83 5.7 1.78 2.51-.05 8.26 1.23 8.27 8.99.01 9.36 1.63 18.39-.68 26.36-1.3 4.49-2.73 8.71-2.73 13.43 0 3.89.31 7.86.31 12.37 0 6.35-.91 10.24-8.18 11.24s-22.81 1.25-28.32 0c-5.51-1.25-5.18-4.28-5.18-7.51 0-6.63.63-12.78-1.72-15.2z" />
    <path
       id="b"
       d="M54.92 102.44C45.3 92.51 44.21 91.5 41.51 83.86c-2.59-7.34-11.13-21.45-13.53-25.63-2.02-3.52-2.62-6.34-1.12-9.6.98-2.14 3.36-4.84 7.08-4.91 2.43-.05 5.84.42 10.62 7.11.53.74 1.69.47 1.83-.42.05-.33.1-.72.13-1.2.25-3.51 0-30.58.75-37.35.75-6.77 1.94-7.86 4.36-9.25 1.76-1.01 6.22-.92 8.48 1.34 2.38 2.38 2.47 10.43 2.95 40.23 0 4.26.98 5.22 3.05 3.84 1.47-.98 5.12-1.28 7.23-.08 1.87 1.07 3.09 2.14 4.86 1.72 2.44-.59 6.78-.95 9.25 1.32 1.45 1.33 3.19 1.83 5.7 1.78 2.51-.05 8.26 1.23 8.27 8.99.01 9.36 1.63 18.39-.68 26.36-1.3 4.49-2.73 8.71-2.73 13.43 0 3.89.31 7.86.31 12.37 0 6.35-.91 10.24-8.18 11.24s-22.81 1.25-28.32 0c-5.51-1.25-5.18-4.28-5.18-7.51 0-6.63.63-12.78-1.72-15.2z" />
    <path
       id="c"
       d="M54.92 102.44C45.3 92.51 44.21 91.5 41.51 83.86c-2.59-7.34-11.13-21.45-13.53-25.63-2.02-3.52-2.62-6.34-1.12-9.6.98-2.14 3.36-4.84 7.08-4.91 2.43-.05 5.84.42 10.62 7.11.53.74 1.69.47 1.83-.42.05-.33.1-.72.13-1.2.25-3.51 0-30.58.75-37.35.75-6.77 1.94-7.86 4.36-9.25 1.76-1.01 6.22-.92 8.48 1.34 2.38 2.38 2.47 10.43 2.95 40.23 0 4.26.98 5.22 3.05 3.84 1.47-.98 5.12-1.28 7.23-.08 1.87 1.07 3.09 2.14 4.86 1.72 2.44-.59 6.78-.95 9.25 1.32 1.45 1.33 3.19 1.83 5.7 1.78 2.51-.05 8.26 1.23 8.27 8.99.01 9.36 1.63 18.39-.68 26.36-1.3 4.49-2.73 8.71-2.73 13.43 0 3.89.31 7.86.31 12.37 0 6.35-.91 10.24-8.18 11.24s-22.81 1.25-28.32 0c-5.51-1.25-5.18-4.28-5.18-7.51 0-6.63.63-12.78-1.72-15.2z" />
    <path
       id="d"
       d="M54.92 102.44C45.3 92.51 44.21 91.5 41.51 83.86c-2.59-7.34-11.13-21.45-13.53-25.63-2.02-3.52-2.62-6.34-1.12-9.6.98-2.14 3.36-4.84 7.08-4.91 2.43-.05 5.84.42 10.62 7.11.53.74 1.69.47 1.83-.42.05-.33.1-.72.13-1.2.25-3.51 0-30.58.75-37.35.75-6.77 1.94-7.86 4.36-9.25 1.76-1.01 6.22-.92 8.48 1.34 2.38 2.38 2.47 10.43 2.95 40.23 0 4.26.98 5.22 3.05 3.84 1.47-.98 5.12-1.28 7.23-.08 1.87 1.07 3.09 2.14 4.86 1.72 2.44-.59 6.78-.95 9.25 1.32 1.45 1.33 3.19 1.83 5.7 1.78 2.51-.05 8.26 1.23 8.27 8.99.01 9.36 1.63 18.39-.68 26.36-1.3 4.49-2.73 8.71-2.73 13.43 0 3.89.31 7.86.31 12.37 0 6.35-.91 10.24-8.18 11.24s-22.81 1.25-28.32 0c-5.51-1.25-5.18-4.28-5.18-7.51 0-6.63.63-12.78-1.72-15.2z" />
    <path
       id="e"
       d="M54.92 102.44C45.3 92.51 44.21 91.5 41.51 83.86c-2.59-7.34-11.13-21.45-13.53-25.63-2.02-3.52-2.62-6.34-1.12-9.6.98-2.14 3.36-4.84 7.08-4.91 2.43-.05 5.84.42 10.62 7.11.53.74 1.69.47 1.83-.42.05-.33.1-.72.13-1.2.25-3.51 0-30.58.75-37.35.75-6.77 1.94-7.86 4.36-9.25 1.76-1.01 6.22-.92 8.48 1.34 2.38 2.38 2.47 10.43 2.95 40.23 0 4.26.98 5.22 3.05 3.84 1.47-.98 5.12-1.28 7.23-.08 1.87 1.07 3.09 2.14 4.86 1.72 2.44-.59 6.78-.95 9.25 1.32 1.45 1.33 3.19 1.83 5.7 1.78 2.51-.05 8.26 1.23 8.27 8.99.01 9.36 1.63 18.39-.68 26.36-1.3 4.49-2.73 8.71-2.73 13.43 0 3.89.31 7.86.31 12.37 0 6.35-.91 10.24-8.18 11.24s-22.81 1.25-28.32 0c-5.51-1.25-5.18-4.28-5.18-7.51 0-6.63.63-12.78-1.72-15.2z" />
    <radialGradient
       id="g"
       cx="47.76"
       cy="97.431"
       gradientTransform="matrix(1.01833 .20493 -.33154 1.14993 31.437 -26.267)"
       gradientUnits="userSpaceOnUse"
       r="0">
      <stop
         offset="0"
         stop-color="#ffb300"
         id="stop7" />
      <stop
         offset=".689"
         stop-color="#ffca28"
         id="stop9" />
      <stop
         offset="1"
         stop-color="#ffb300"
         id="stop11" />
    </radialGradient>
    <path
       id="f"
       d="M4 4h120v120H4z" />
  </defs>
  <path
     d="M64 9.62C1.59 9.62.12 79.58.12 93.42c0 13.86 28.59 25.08 63.88 25.08 35.28 0 63.88-11.22 63.88-25.08 0-13.84-1.48-83.8-63.88-83.8z"
     fill="#fcc21b"
     id="path17" />
  <path
     d="M34.312 86.194c3.113-1.566 6.25 2.663 8.13 6.683l2.834 6.066c1.28 2.74-.716 3.761-2.923 6.554l-.428.542c-2.207 2.793-6.235-.263-7.36-3.07l-2.642-6.598c-1.125-2.81-1.925-8.007 2.39-10.177z"
     stroke-miterlimit="10"
     id="path25"
     style="stroke:#2f2f2f;stroke-opacity:1;stroke-width:4;stroke-miterlimit:10;stroke-dasharray:none;stroke-linecap:square;stroke-linejoin:round"
     stroke-width="1.7"
     stroke="#e48c15"
     fill="#fcc21b" />
  <path
     inkscape:connector-curvature="0"
     style="fill:#ed6c30"
     d="m 75.231748,82.325 c 0,5.975 -4.54,8.496 -10.147,8.496 -5.606,0 -10.147,-2.52 -10.147,-8.496 0,-5.976 4.54,-13.146 10.147,-13.146 5.606,0 10.147,7.17 10.147,13.146 z"
     id="path10" />
  <path
     d="M71.447 111.543c1.325-.06-.86-2.301-.83-3.316.058-2.135.069-29.559.148-32.498.096-3.57.236-7.73-3.973-7.875-4.208-.144-5.698 4.39-6.635 9.963-.935 5.566-.645 20.806-1.581 22.911-.665 1.496-6.648 2.613-5.758 3.824 1.62 2.202 8.888 1.7 11.174 3.185 2.37 1.539 4.678 3.934 7.455 3.806z"
     fill="#fcc21b"
     stroke="#e48c15"
     stroke-width="1.7"
     stroke-linecap="round"
     stroke-linejoin="round"
     stroke-miterlimit="10"
     id="path27"
     style="stroke:#2f2f2f;stroke-opacity:1;stroke-width:4;stroke-miterlimit:10;stroke-dasharray:none" />
  <path
     d="M41.723 123.61c-.656-.08-1.522-.718-1.522-1.27l-.254-6.93c0-.55 1.129-1.653 1.794-1.732.805-.096 2.021.936 2.021 1.593l-.254 7c-.008.647-.988 1.435-1.785 1.339z"
     fill="#eda600"
     id="path29"
     style="stroke-width:4;stroke-miterlimit:10;stroke-dasharray:none" />
  <path
     d="M68.359 97.814c-9.8-6.86-19.933-7.971-28.57-2.161-6.57 4.428-9.904 6.869-11.794 12.618-2.066 6.317 1.4 8.872 1.496 11.628.166 4.98 5.784 6.86 5.976 7.64.709 2.8-1.199 8.286 4.48 14.778 8.138 9.301 27.09 4.463 31.885-.997 5.994-6.8 9.81-34.204-3.473-43.506z"
     fill="#fcc21b"
     stroke="#e48c15"
     stroke-width="1.7"
     stroke-miterlimit="10"
     id="path31"
     style="stroke:#2f2f2f;stroke-opacity:1;stroke-width:4;stroke-miterlimit:10;stroke-dasharray:none" />
  <path
     d="M47.27 101.97c-7.11 3.692-18.565 12.36-16.94 18.428.636 2.373 1.208 4.043 4.315 4.813"
     fill="#fcc21b"
     stroke="#e48c15"
     stroke-width="1.7"
     stroke-linecap="round"
     stroke-linejoin="round"
     stroke-miterlimit="10"
     id="path33"
     style="stroke:#2f2f2f;stroke-opacity:1;stroke-width:4;stroke-miterlimit:10;stroke-dasharray:none" />
  <path
     d="M32.833 104.36c-.647 0-4.331 17-4.331 17l10.176 12.837 11.795-6.466 5.268-18.655 3.824-.578-.236-1.671 1.365-6.799-25.043-1.094z"
     fill="none"
     id="path35"
     style="stroke-width:4;stroke-miterlimit:10;stroke-dasharray:none" />
  <path
     d="M55.575 109.942c-10.553.507-23.457 11.78-18.437 19.268 2.86 4.264 12.166-7.12 17.44-6.143-4.48 2.328-4.98 12.46-.333 14.613"
     fill="none"
     stroke="#e48c15"
     stroke-width="1.7"
     stroke-linecap="round"
     stroke-linejoin="round"
     stroke-miterlimit="10"
     id="path37"
     style="stroke:#2f2f2f;stroke-opacity:1;stroke-width:4;stroke-miterlimit:10;stroke-dasharray:none" />
  <path
     d="M33.48 117.248l12.356-11.489 21.254 3.527 3.351 3.132-1.855 2.94-10.675 4.795c.945.219 5.749 27.755-6.659 24.92-3.649-.83-20.037-13.85-20.037-13.85z"
     fill="none"
     id="path39"
     style="stroke-width:4;stroke-miterlimit:10;stroke-dasharray:none" />
  <g
     transform="translate(0.55762409,1.7711013)"
     style="fill:#2f2f2f"
     id="g38">
    <path
       inkscape:connector-curvature="0"
       d="m 41.99,61.9 c -4.49,0.04 -8.17,-4.27 -8.22,-9.62 -0.05,-5.37 3.55,-9.75 8.04,-9.79 4.48,-0.04 8.17,4.27 8.22,9.64 0.05,5.36 -3.56,9.73 -8.04,9.77 z m 44.11,0 c 4.48,-0.01 8.11,-4.36 8.1,-9.71 -0.01,-5.37 -3.66,-9.7 -8.14,-9.69 -4.49,0.01 -8.13,4.36 -8.12,9.73 0.01,5.35 3.67,9.68 8.16,9.67 z"
       id="path36" />
  </g>
</svg>
