<?xml version="1.0" encoding="UTF-8" standalone="no"?>
<svg
   xmlns:dc="http://purl.org/dc/elements/1.1/"
   xmlns:cc="http://creativecommons.org/ns#"
   xmlns:rdf="http://www.w3.org/1999/02/22-rdf-syntax-ns#"
   xmlns:svg="http://www.w3.org/2000/svg"
   xmlns="http://www.w3.org/2000/svg"
   xmlns:xlink="http://www.w3.org/1999/xlink"
   xmlns:sodipodi="http://sodipodi.sourceforge.net/DTD/sodipodi-0.dtd"
   xmlns:inkscape="http://www.inkscape.org/namespaces/inkscape"
   width="128"
   height="128"
   version="1.1"
   id="svg58"
   sodipodi:docname="emoji_u1f967.svg"
   inkscape:version="0.92.4 (5da689c313, 2019-01-14)">
  <metadata
     id="metadata64">
    <rdf:RDF>
      <cc:Work
         rdf:about="">
        <dc:format>image/svg+xml</dc:format>
        <dc:type
           rdf:resource="http://purl.org/dc/dcmitype/StillImage" />
      </cc:Work>
    </rdf:RDF>
  </metadata>
  <defs
     id="defs62" />
  <sodipodi:namedview
     pagecolor="#ffffff"
     bordercolor="#666666"
     borderopacity="1"
     objecttolerance="10"
     gridtolerance="10"
     guidetolerance="10"
     inkscape:pageopacity="0"
     inkscape:pageshadow="2"
     inkscape:window-width="1866"
     inkscape:window-height="1016"
     id="namedview60"
     showgrid="false"
     inkscape:object-nodes="false"
     inkscape:zoom="5.2149125"
     inkscape:cx="27.512781"
     inkscape:cy="75.647001"
     inkscape:window-x="1134"
     inkscape:window-y="644"
     inkscape:window-maximized="1"
     inkscape:current-layer="svg58" />
  <linearGradient
     id="a"
     gradientTransform="rotate(2.292 65.738 66.222)"
     gradientUnits="userSpaceOnUse"
     x1="53.505"
     x2="53.505"
     y1="22.295"
     y2="10.358">
    <stop
       offset="0"
       stop-color="#c29f76"
       id="stop2" />
  </linearGradient>
  <linearGradient
     id="b"
     gradientTransform="rotate(2.292 65.738 66.222)"
     gradientUnits="userSpaceOnUse"
     x1="70.932"
     x2="70.932"
     y1="11.915"
     y2="29.375">
    <stop
       offset=".019"
       stop-color="#f8dfc2"
       id="stop7" />
  </linearGradient>
  <linearGradient
     id="c"
     gradientTransform="rotate(2.292 65.738 66.222)"
     gradientUnits="userSpaceOnUse"
     x1="90.734"
     x2="90.734"
     y1="19.497"
     y2="37.69">
    <stop
       offset=".019"
       stop-color="#f8dfc2"
       id="stop12" />
  </linearGradient>
  <linearGradient
     id="d"
     gradientTransform="rotate(2.292 65.738 66.222)"
     gradientUnits="userSpaceOnUse"
     x1="111.296"
     x2="111.296"
     y1="33.427"
     y2="52.659">
    <stop
       offset=".019"
       stop-color="#f8dfc2"
       id="stop17" />
  </linearGradient>
  <linearGradient
     id="e"
     gradientTransform="rotate(2.292 65.738 66.222)"
     gradientUnits="userSpaceOnUse"
     x1="63.955"
     x2="63.955"
     y1="56.614"
     y2="113.225">
    <stop
       offset="0"
       stop-color="#a68367"
       id="stop24" />
  </linearGradient>
  <linearGradient
     id="f"
     gradientTransform="rotate(2.292 65.738 66.222)"
     gradientUnits="userSpaceOnUse"
     x1="7.025"
     x2="82.139"
     y1="96.858"
     y2="35.144">
    <stop
       offset=".019"
       stop-color="#f89d53"
       id="stop33" />
  </linearGradient>
  <path
     d="M33.31 52.36c.04.01.07.01.11.02-.03.01-.07.03-.1.04-.01-.02-.01-.04-.01-.06z"
     fill="#fbe2c5"
     id="path46" />
  <use
     xlink:href="#a"
     overflow="visible"
     id="use11"
     transform="translate(79.186441,165.9661)"
     style="overflow:visible;fill:#fcc21b"
     x="0"
     y="0"
     width="100%"
     height="100%" />
  <path
     style="fill:#fcc21b;fill-opacity:1;stroke:#fcc21b;stroke-width:3.29999995;stroke-linecap:round;stroke-linejoin:round;stroke-miterlimit:4;stroke-dasharray:none;stroke-opacity:1"
     d="m 5.36,92.33 c 7.727592,-28.229464 19.609769,-54.783003 41.71,-74.07 0,0 1.674706,-13.5809757 5.407947,-12.4405263 4.181399,1.2773551 7.428815,7.5178683 11.094006,9.2830043 5.313684,2.55904 12.839781,-1.02893 18.234833,1.769356 5.481844,2.843303 2.586695,9.70261 15.81461,15.092335 7.797274,3.177006 12.611974,-1.674981 16.543434,0.519131 3.8588,2.153566 7.15345,6.542944 8.61507,11.502431 1.0171,3.451151 -1.9725,12.105105 -1.9725,12.105105 C 88.380477,78.231011 45.360354,84.850516 5.36,92.33 Z"
     id="path880"
     inkscape:connector-curvature="0"
     sodipodi:nodetypes="ccsssssscc" />
  <path
     style="fill:#fcc21b;fill-opacity:1;stroke:#fcc21b;stroke-width:3.29999995;stroke-linecap:round;stroke-linejoin:round;stroke-miterlimit:4;stroke-dasharray:none;stroke-opacity:1"
     d="m 5.36,92.33 c 0,0 -0.2811997,14.02889 -0.3309234,23.01805 -0.021141,3.82192 3.3792831,6.34266 5.8052394,6.32395 33.060374,-0.25504 101.785374,-19.83004 108.822534,-27.421368 2.98358,-3.218533 1.15055,-38.159796 1.15055,-38.159796"
     id="path882"
     inkscape:connector-curvature="0"
     sodipodi:nodetypes="csssc" />
  <path
     style="fill:#ed6c30;fill-opacity:1;stroke:#ed6c30;stroke-width:4;stroke-linecap:round;stroke-linejoin:round;stroke-miterlimit:4;stroke-dasharray:none;stroke-opacity:1"
     d="m 5.3261018,93.07576 0.1448132,21.68555 c 22.322326,-2.78091 33.195516,-3.56703 50.778075,-8.1278 17.524038,-4.5456 41.768929,-12.858626 57.13103,-19.966118 0.8811,-9.323236 0.46502,-15.567809 0.85609,-26.398426"
     id="path890"
     inkscape:connector-curvature="0"
     sodipodi:nodetypes="ccscc" />
  <path
     style="fill:#f3a17d;fill-opacity:1;stroke:none;stroke-width:4;stroke-linecap:round;stroke-linejoin:round;stroke-miterlimit:4;stroke-dasharray:none;stroke-dashoffset:0;stroke-opacity:1"
     d="M 5.8601083,93.706354 C 12.593518,66.371522 24.026835,40.282736 44.541415,20.093695 72.446675,26.621438 89.787375,44.553781 114.22774,59.00125 81.792745,78.568299 48.994938,87.386704 5.8601083,93.706354 Z"
     id="path888-3"
     inkscape:connector-curvature="0"
     sodipodi:nodetypes="cccc" />
  <path
     style="color:#000000;font-style:normal;font-variant:normal;font-weight:normal;font-stretch:normal;font-size:medium;line-height:normal;font-family:sans-serif;font-variant-ligatures:normal;font-variant-position:normal;font-variant-caps:normal;font-variant-numeric:normal;font-variant-alternates:normal;font-feature-settings:normal;text-indent:0;text-align:start;text-decoration:none;text-decoration-line:none;text-decoration-style:solid;text-decoration-color:#000000;letter-spacing:normal;word-spacing:normal;text-transform:none;writing-mode:lr-tb;direction:ltr;text-orientation:mixed;dominant-baseline:auto;baseline-shift:baseline;text-anchor:start;white-space:normal;shape-padding:0;clip-rule:nonzero;display:inline;overflow:visible;visibility:visible;opacity:1;isolation:auto;mix-blend-mode:normal;color-interpolation:sRGB;color-interpolation-filters:linearRGB;solid-color:#000000;solid-opacity:1;vector-effect:none;fill:#ed6c30;fill-opacity:1;fill-rule:nonzero;stroke:none;stroke-width:4;stroke-linecap:round;stroke-linejoin:round;stroke-miterlimit:4;stroke-dasharray:none;stroke-dashoffset:0;stroke-opacity:1;color-rendering:auto;image-rendering:auto;shape-rendering:auto;text-rendering:auto;enable-background:accumulate"
     d="m 44.642578,18.617188 c -0.544594,-0.01618 -1.072222,0.190499 -1.460937,0.572265 C 21.561589,38.309846 6.2853576,60.858234 3.4179688,91.851562 3.0785009,93.230937 4.2448854,94.514675 5.6503906,94.308594 48.846166,87.980014 82.527262,81.008777 115.30273,61.236328 c 1.29714,-0.781774 1.28859,-2.665585 -0.0156,-3.435547 C 91.114074,43.511344 73.556398,25.338893 45.039062,18.667969 c -0.130134,-0.03012 -0.262959,-0.04714 -0.396484,-0.05078 z m 0.597225,5.861582 c 1.902589,-1.198951 8.894682,2.634743 18.705679,7.66814 16.819009,8.628762 39.691588,21.898606 43.284258,27.446064 1.83196,2.828741 -6.59982,9.142659 -19.58542,14.255839 -9.798537,3.85825 -21.396264,5.304252 -33.161003,8.463883 -21.056129,5.654998 -41.763282,9.964485 -44.25028,5.697896 C 8.100512,84.352122 11.950428,70.224437 19.592982,55.725078 26.134526,43.314541 35.557204,30.580435 45.239803,24.47877 Z"
     id="path888"
     inkscape:connector-curvature="0"
     sodipodi:nodetypes="cccccccccssssssss" />
</svg>
